<svg width="18" height="18" viewBox="0 0 18 18" fill="none" xmlns="http://www.w3.org/2000/svg">
<path fill-rule="evenodd" clip-rule="evenodd" d="M15.8553 2.14469C14.7197 1.00908 12.8783 1.00908 11.7421 2.14469L9.10308 4.78429L9.10245 4.78496C8.35529 5.53729 8.2396 6.16487 8.33978 6.74269C8.45354 7.39937 8.85555 8.06639 9.35646 8.86138C9.37714 8.89434 9.39846 8.9273 9.41914 8.96091C9.87222 9.67704 10.3996 10.5121 10.58 11.3917C10.6782 11.8726 10.6776 12.3806 10.5108 12.9029C10.3454 13.4219 10.028 13.9157 9.55098 14.3901L9.55035 14.3914L7.17186 16.7692C5.53147 18.4103 2.87116 18.4103 1.23078 16.7692C-0.410258 15.1288 -0.410258 12.4685 1.23078 10.8281L2.83047 9.22849C3.08254 8.97642 3.49167 8.97642 3.74438 9.22849C3.99645 9.4812 3.99645 9.89033 3.74438 10.1424L2.14469 11.7421C1.00908 12.8783 1.00908 14.7197 2.14469 15.8553C3.28029 16.9916 5.12234 16.9916 6.25795 15.8553L8.63774 13.4755L8.63904 13.4742C9.00099 13.1142 9.18905 12.793 9.27953 12.5099C9.36873 12.23 9.37455 11.9502 9.31314 11.6509C9.18259 11.0104 8.77021 10.3544 8.26349 9.55098L8.25832 9.54388C7.78844 8.79866 7.23131 7.91513 7.06649 6.96373C6.88681 5.93024 7.17507 4.89095 8.18593 3.87298L8.18723 3.87168L10.8281 1.23078C12.4685 -0.410258 15.1288 -0.410258 16.7692 1.23078C18.4103 2.87116 18.4103 5.53147 16.7692 7.17186L14.7126 9.22849C14.4605 9.4812 14.0514 9.4812 13.7987 9.22849C13.5466 8.97642 13.5466 8.56729 13.7987 8.31458L15.8553 6.25795C16.9916 5.12234 16.9916 3.28029 15.8553 2.14469Z" fill="#666E79"/>
</svg>
