<svg width="34" height="34" viewBox="0 0 34 34" fill="none" xmlns="http://www.w3.org/2000/svg">
<path d="M8.05261 26.1908C8.05261 23.0722 10.2221 20.4157 13.1706 19.9242L13.4361 19.88C15.7971 19.4864 18.2029 19.4864 20.5638 19.88L20.8294 19.9242C23.7778 20.4157 25.9473 23.0722 25.9473 26.1908C25.9473 27.5388 24.9012 28.6316 23.6106 28.6316H10.3893C9.09879 28.6316 8.05261 27.5388 8.05261 26.1908Z" stroke="#666E79"/>
<path d="M22.2193 10.4572C22.2193 13.2677 19.8825 15.5461 17 15.5461C14.1175 15.5461 11.7807 13.2677 11.7807 10.4572C11.7807 7.64676 14.1175 5.36842 17 5.36842C19.8825 5.36842 22.2193 7.64676 22.2193 10.4572Z" stroke="#666E79"/>
<circle cx="17" cy="17" r="16.5" stroke="#666E79"/>
</svg>
