<svg width="18" height="18" viewBox="0 0 18 18" fill="none" xmlns="http://www.w3.org/2000/svg">
<path d="M17.3077 18H9H0.692308C0.313846 18 0 17.6765 0 17.2864C0 16.8964 0.313846 16.5729 0.692308 16.5729H17.3077C17.6862 16.5729 18 16.8964 18 17.2864C18 17.6765 17.6862 18 17.3077 18Z" fill="#666E79"/>
<path d="M17.3077 1.42711H0.692308C0.313846 1.42711 0 1.10363 0 0.713555C0 0.323478 0.313846 0 0.692308 0H17.3077C17.6862 0 18 0.323478 18 0.713555C18 1.10363 17.6862 1.42711 17.3077 1.42711Z" fill="#666E79"/>
<path d="M17.3077 9.71355H0.692308C0.313846 9.71355 0 9.39007 0 8.99999C0 8.60992 0.313846 8.28644 0.692308 8.28644H17.3077C17.6862 8.28644 18 8.60992 18 8.99999C18 9.39007 17.6862 9.71355 17.3077 9.71355Z" fill="#666E79"/>
</svg>
