<svg width="18" height="18" viewBox="0 0 18 18" fill="none" xmlns="http://www.w3.org/2000/svg">
<path d="M0.625887 18C0.466798 18 0.30771 17.9414 0.182114 17.8158C-0.0607047 17.573 -0.0607047 17.1711 0.182114 16.9282L16.9282 0.182114C17.1711 -0.0607047 17.573 -0.0607047 17.8158 0.182114C18.0586 0.424933 18.0586 0.82684 17.8158 1.06966L1.06966 17.8158C0.944063 17.9414 0.784975 18 0.625887 18Z" fill="#666E79"/>
<path d="M18 17.372C18 17.5311 17.9414 17.6902 17.8158 17.8158C17.573 18.0586 17.1711 18.0586 16.9282 17.8158L0.182114 1.06967C-0.0607047 0.826853 -0.0607047 0.424946 0.182114 0.182127C0.424933 -0.0606918 0.82684 -0.0606918 1.06966 0.182127L17.8158 16.9283C17.9414 17.0538 18 17.2129 18 17.372Z" fill="#666E79"/>
</svg>
