<svg width="18" height="17" viewBox="0 0 18 17" fill="none" xmlns="http://www.w3.org/2000/svg">
<path d="M5.90153 11.4849C2.73617 11.4849 0.159058 8.90783 0.159058 5.74247C0.159058 2.57711 2.73617 0 5.90153 0C9.06689 0 11.644 2.57711 11.644 5.74247C11.644 8.90783 9.06689 11.4849 5.90153 11.4849ZM5.90153 0.840361C3.19556 0.840361 0.999419 3.04211 0.999419 5.74247C0.999419 8.44283 3.19556 10.6446 5.90153 10.6446C8.6075 10.6446 10.8036 8.44283 10.8036 5.74247C10.8036 3.04211 8.6075 0.840361 5.90153 0.840361Z" fill="#666E79"/>
<path d="M15.9861 16.7185L9.23078 9.96321C9.07691 9.80934 9.15138 9.47966 9.39506 9.23598C9.63874 8.9923 9.96842 8.91782 10.1223 9.07169L16.8776 15.827C17.0315 15.9809 16.957 16.3106 16.7133 16.5542C16.4696 16.7979 16.14 16.8724 15.9861 16.7185Z" fill="#666E79"/>
</svg>
