<svg width="20" height="20" viewBox="0 0 20 20" fill="none" xmlns="http://www.w3.org/2000/svg">
<path d="M10 19C14.9706 19 19 14.9706 19 10C19 5.02944 14.9706 1 10 1C5.02944 1 1 5.02944 1 10C1 14.9706 5.02944 19 10 19Z" stroke="#666E79" stroke-width="1.5" stroke-linecap="round" stroke-linejoin="round"/>
<path d="M6.88462 7.23076C6.69345 7.23076 6.53847 7.07578 6.53847 6.88461C6.53847 6.69343 6.69345 6.53845 6.88462 6.53845" stroke="#666E79" stroke-width="1.5" stroke-linecap="round" stroke-linejoin="round"/>
<path d="M6.88463 7.23076C7.0758 7.23076 7.23078 7.07578 7.23078 6.88461C7.23078 6.69343 7.0758 6.53845 6.88463 6.53845" stroke="#666E79" stroke-width="1.5" stroke-linecap="round" stroke-linejoin="round"/>
<path d="M13.1154 7.23076C12.9242 7.23076 12.7692 7.07578 12.7692 6.88461C12.7692 6.69343 12.9242 6.53845 13.1154 6.53845" stroke="#666E79" stroke-width="1.5" stroke-linecap="round" stroke-linejoin="round"/>
<path d="M13.1154 7.23076C13.3066 7.23076 13.4615 7.07578 13.4615 6.88461C13.4615 6.69343 13.3066 6.53845 13.1154 6.53845" stroke="#666E79" stroke-width="1.5" stroke-linecap="round" stroke-linejoin="round"/>
<path d="M9.99999 15.5385C12.6765 15.5385 14.8461 13.3688 14.8461 10.6923H5.15384C5.15384 13.3688 7.32353 15.5385 9.99999 15.5385Z" stroke="#666E79" stroke-width="1.5" stroke-linecap="round" stroke-linejoin="round"/>
</svg>
